<svg width="209" height="213" viewBox="0 0 209 213" fill="none" xmlns="http://www.w3.org/2000/svg">
<path d="M20 0.5H155.5C165.993 0.5 174.5 9.00659 174.5 19.5C174.5 29.9934 165.993 38.5 155.5 38.5H0.5V20C0.5 9.23045 9.23045 0.5 20 0.5Z" fill="black"/>
<path d="M20 0.5H155.5C165.993 0.5 174.5 9.00659 174.5 19.5C174.5 29.9934 165.993 38.5 155.5 38.5H0.5V20C0.5 9.23045 9.23045 0.5 20 0.5Z" stroke="black"/>
<path d="M36.1741 19.9844V21H30.5178V23.8438H29.2991V21H23.4553V19.9844H36.1741ZM34.5178 13.5625V18.3906H25.1116V13.5625H34.5178ZM26.3147 14.5312V17.4062H33.2991V14.5312H26.3147ZM34.7522 25.4375V26.4688H25.0803V22.4688H26.3147V25.4375H34.7522ZM51.5341 12.8906V16.2969H53.6278V17.2969H51.5341V20.7656H50.3153V12.8906H51.5341ZM51.9091 21.5V22.5H49.9559V25.5469H52.0809V26.5469H42.5028V25.5469H44.5966V22.5H42.6278V21.5H51.9091ZM44.5809 13.6875C46.6903 13.6875 48.2216 15.0156 48.2372 16.9531C48.2216 18.875 46.6903 20.1875 44.5809 20.1875C42.4716 20.1875 40.9247 18.875 40.9403 16.9531C40.9247 15.0156 42.4716 13.6875 44.5809 13.6875ZM44.5809 14.7188C43.1747 14.7188 42.1278 15.625 42.1434 16.9531C42.1278 18.25 43.1747 19.1562 44.5809 19.1719C46.0028 19.1562 47.0341 18.25 47.0341 16.9531C47.0341 15.625 46.0028 14.7188 44.5809 14.7188ZM45.7841 25.5469H48.7684V22.5H45.7841V25.5469ZM66.0891 12.875V26.7656H64.9016V12.875H66.0891ZM63.2922 13.1719V26.0625H62.1203V19.3125H60.3391C60.2063 22.0156 59.0578 23.7031 57.3391 23.7031C55.5266 23.7031 54.3547 21.8281 54.3547 18.875C54.3547 15.9219 55.5266 14.0469 57.3391 14.0469C59.0266 14.0469 60.1672 15.6797 60.3234 18.2969H62.1203V13.1719H63.2922ZM57.3391 15.2031C56.2141 15.2031 55.4953 16.6094 55.5109 18.875C55.4953 21.125 56.2141 22.5469 57.3391 22.5312C58.4641 22.5469 59.1828 21.125 59.1828 18.875C59.1828 16.6094 58.4641 15.2031 57.3391 15.2031ZM82.8866 21.375V22.3438H72.5741V21.375H77.1053V20.0781H78.3241V21.375H82.8866ZM82.6366 16.1562V17.1406H78.3553V18.5469H84.0897V19.5469H71.3709V18.5469H77.1522V17.1406H73.1366V13.0938H74.3553V16.1562H82.6366ZM77.7147 22.9844C80.3866 22.9844 81.9178 23.625 81.9178 24.875C81.9178 26.0938 80.3866 26.7344 77.7147 26.7344C75.0272 26.7344 73.5272 26.0938 73.5272 24.875C73.5272 23.625 75.0272 22.9844 77.7147 22.9844ZM77.7147 23.8594C75.8553 23.8594 74.7772 24.2031 74.7928 24.875C74.7772 25.5312 75.8553 25.8594 77.7147 25.8594C79.5584 25.8594 80.6522 25.5312 80.6522 24.875C80.6522 24.2031 79.5584 23.8594 77.7147 23.8594ZM96.0353 14.2812V15.6719C96.0197 17.375 96.0197 19.2812 95.5197 22.0781L94.2697 21.9375C94.8009 19.2812 94.8009 17.3281 94.8009 15.6719V15.2969H86.2384V14.2812H96.0353ZM97.5509 23.7812V24.7969H84.8947V23.7812H89.8634V18.8125H91.0666V23.7812H97.5509ZM112.848 12.875V18.5312H115.098V19.5625H112.848V26.7656H111.63V12.875H112.848ZM109.255 14.375C109.255 18.3125 107.411 21.8906 102.88 24.125L102.192 23.1562C105.786 21.3672 107.739 18.6953 108.02 15.4062H102.833V14.375H109.255ZM119.732 16.8281C119.732 19.0312 120.81 21.4219 122.653 22.5156L121.95 23.4688C120.614 22.6562 119.653 21.1719 119.169 19.4844C118.653 21.3281 117.622 22.9141 116.232 23.7656L115.45 22.8438C117.372 21.7188 118.544 19.25 118.544 16.875V14.1875H119.732V16.8281ZM127.513 12.875V26.7656H126.325V12.875H127.513ZM124.638 13.1719V26.0625H123.482V18.9062H121.122V17.8594H123.482V13.1719H124.638ZM141.833 23.9531V24.9844H129.115V23.9531H132.271V20.2031C131.083 19.5859 130.365 18.5859 130.365 17.3281C130.365 15.1719 132.474 13.7656 135.443 13.75C138.412 13.7656 140.521 15.1719 140.521 17.3281C140.521 18.5625 139.826 19.5547 138.677 20.1719V23.9531H141.833ZM135.443 14.7656C133.162 14.75 131.552 15.7812 131.552 17.3281C131.552 18.875 133.162 19.9219 135.443 19.9219C137.708 19.9219 139.333 18.875 139.333 17.3281C139.333 15.7812 137.708 14.75 135.443 14.7656ZM133.474 23.9531H137.443V20.6406C136.841 20.8047 136.169 20.8906 135.443 20.8906C134.732 20.8906 134.068 20.8125 133.474 20.6562V23.9531ZM143.576 19.6719C144.076 19.0938 144.701 18.7812 145.388 18.7812C146.576 18.7812 147.654 19.6875 148.795 19.6875C149.498 19.6875 150.107 19.3438 150.576 18.7031V20C150.06 20.5938 149.451 20.8906 148.763 20.8906C147.576 20.8906 146.498 19.9844 145.342 19.9844C144.654 19.9844 144.045 20.3281 143.576 20.9688V19.6719Z" fill="white"/>
<path d="M53.5 58.5H189C199.77 58.5 208.5 67.2304 208.5 78V96.5H53.5C43.0066 96.5 34.5 87.9934 34.5 77.5C34.5 67.0066 43.0066 58.5 53.5 58.5Z" stroke="#BDBDBD"/>
<path d="M62.3381 71.9531C64.2287 71.9688 65.5881 73.5859 65.7912 76.1875H68.9006V70.875H70.1194V84.7969H68.9006V77.2031H65.8069C65.6584 79.9219 64.2756 81.625 62.3381 81.625C60.2912 81.625 58.8537 79.75 58.8537 76.7969C58.8537 73.8438 60.2912 71.9688 62.3381 71.9531ZM62.3381 73.0469C60.9631 73.0625 60.0256 74.5312 60.0256 76.7969C60.0256 79.0625 60.9631 80.5312 62.3381 80.5312C63.6975 80.5312 64.6506 79.0625 64.6506 76.7969C64.6506 74.5312 63.6975 73.0625 62.3381 73.0469ZM83.565 70.875V84.7969H82.3306V70.875H83.565ZM79.6275 72.2031V73.2344H74.2525V80.2812C76.9556 80.2812 78.7369 80.1953 80.815 79.8281L80.94 80.8594C78.7837 81.25 76.9556 81.3281 74.1431 81.3438H73.0181V72.2031H79.6275ZM89.3387 71.9531C91.3856 71.9688 92.8387 73.8438 92.8544 76.7969C92.8387 79.75 91.3856 81.625 89.3387 81.625C87.2762 81.625 85.8387 79.75 85.8387 76.7969C85.8387 73.8438 87.2762 71.9688 89.3387 71.9531ZM89.3387 73.0469C87.9637 73.0625 86.995 74.5312 86.995 76.7969C86.995 79.0625 87.9637 80.5312 89.3387 80.5312C90.7294 80.5312 91.6669 79.0625 91.6669 76.7969C91.6669 74.5312 90.7294 73.0625 89.3387 73.0469ZM98.62 74.375V75.4219H96.37V78.5156H98.62V79.5469H96.37V84.7656H95.1512V70.875H96.37V74.375H98.62ZM101.347 80.2344C101.363 78.1406 102.003 77.5 103.081 76.8438C103.722 76.4531 104.222 75.8281 104.222 74.9531C104.222 73.8906 103.394 73.2188 102.363 73.2188C101.472 73.2188 100.581 73.75 100.488 75.0312H99.0656C99.1438 73.1406 100.581 72.0312 102.363 72.0312C104.316 72.0312 105.597 73.2969 105.597 75.0156C105.597 76.2344 105.019 77.0938 104.05 77.6875C103.081 78.2812 102.722 78.875 102.691 80.2344V80.3125H101.347V80.2344ZM102.066 83.5938C101.519 83.5938 101.05 83.1406 101.066 82.5781C101.05 82.0312 101.519 81.5781 102.066 81.5781C102.613 81.5781 103.066 82.0312 103.066 82.5781C103.066 83.1406 102.613 83.5938 102.066 83.5938ZM122.066 70.875V84.7656H120.879V70.875H122.066ZM119.223 71.2188V84.0469H118.051V77.2188H115.019V76.1875H118.051V71.2188H119.223ZM115.957 72.5938V73.6094H111.91V80.3906C113.91 80.3828 115.176 80.2969 116.676 79.9688L116.801 81.0156C115.191 81.3438 113.832 81.4062 111.598 81.4219H110.723V72.5938H115.957ZM135.152 70.875V84.7969H133.934V70.875H135.152ZM130.934 72.1719V77.1094H125.746V80.3906C128.051 80.3906 130.106 80.2891 132.59 79.8906L132.715 80.9219C130.152 81.3281 128.043 81.4219 125.652 81.4219H124.496V76.1094H129.699V73.1875H124.465V72.1719H130.934ZM148.692 70.875V84.7969H147.473V77.25H144.77V76.2188H147.473V70.875H148.692ZM143.926 72.1719V77.0312H138.942V80.4062C141.333 80.4062 143.067 80.3359 145.098 79.9531L145.192 80.9844C143.098 81.3594 141.301 81.4375 138.786 81.4531H137.723V76.0156H142.739V73.1875H137.676V72.1719H143.926ZM165.255 70.875V74.0156H167.349V75.0469H165.255V77.9531H164.036V70.875H165.255ZM161.474 71.5625C161.474 75.0625 158.943 77.3438 154.896 78.3125L154.411 77.2812C157.872 76.5 159.919 74.7734 160.13 72.5781H155.036V71.5625H161.474ZM165.255 78.5781V82.0156H157.63V83.625H165.771V84.6406H156.427V81.0625H164.036V79.5781H156.396V78.5781H165.255ZM179.794 70.875V84.7656H178.622V70.875H179.794ZM176.872 71.25V84.0625H175.701V77.5781H172.763C171.912 79.1953 170.576 80.625 168.638 81.7656L167.919 80.875C170.943 79.0859 172.458 76.5781 172.685 73.6719H168.513V72.6562H173.904C173.896 74.0234 173.677 75.3438 173.216 76.5781H175.701V71.25H176.872ZM183.662 72.1875L183.553 80.3125H182.24L182.131 72.1875H183.662ZM182.896 83.5938C182.349 83.5938 181.881 83.1406 181.896 82.5781C181.881 82.0312 182.349 81.5781 182.896 81.5781C183.443 81.5781 183.896 82.0312 183.896 82.5781C183.896 83.1406 183.443 83.5938 182.896 83.5938Z" fill="#222222"/>
<path d="M20 116.5H189.5C199.993 116.5 208.5 125.007 208.5 135.5C208.5 145.993 199.993 154.5 189.5 154.5H0.5V136C0.5 125.23 9.23045 116.5 20 116.5Z" fill="black"/>
<path d="M20 116.5H189.5C199.993 116.5 208.5 125.007 208.5 135.5C208.5 145.993 199.993 154.5 189.5 154.5H0.5V136C0.5 125.23 9.23045 116.5 20 116.5Z" stroke="black"/>
<path d="M34.025 135.984V137H28.3688V139.844H27.15V137H21.3063V135.984H34.025ZM32.3688 129.562V134.391H22.9625V129.562H32.3688ZM24.1656 130.531V133.406H31.15V130.531H24.1656ZM32.6031 141.438V142.469H22.9313V138.469H24.1656V141.438H32.6031ZM49.385 128.891V132.297H51.4788V133.297H49.385V136.766H48.1663V128.891H49.385ZM49.76 137.5V138.5H47.8069V141.547H49.9319V142.547H40.3538V141.547H42.4475V138.5H40.4788V137.5H49.76ZM42.4319 129.688C44.5413 129.688 46.0725 131.016 46.0881 132.953C46.0725 134.875 44.5413 136.188 42.4319 136.188C40.3225 136.188 38.7756 134.875 38.7913 132.953C38.7756 131.016 40.3225 129.688 42.4319 129.688ZM42.4319 130.719C41.0256 130.719 39.9788 131.625 39.9944 132.953C39.9788 134.25 41.0256 135.156 42.4319 135.172C43.8538 135.156 44.885 134.25 44.885 132.953C44.885 131.625 43.8538 130.719 42.4319 130.719ZM43.635 141.547H46.6194V138.5H43.635V141.547ZM63.94 128.875V142.766H62.7525V128.875H63.94ZM61.1431 129.172V142.062H59.9713V135.312H58.19C58.0572 138.016 56.9088 139.703 55.19 139.703C53.3775 139.703 52.2056 137.828 52.2056 134.875C52.2056 131.922 53.3775 130.047 55.19 130.047C56.8775 130.047 58.0181 131.68 58.1744 134.297H59.9713V129.172H61.1431ZM55.19 131.203C54.065 131.203 53.3463 132.609 53.3619 134.875C53.3463 137.125 54.065 138.547 55.19 138.531C56.315 138.547 57.0338 137.125 57.0338 134.875C57.0338 132.609 56.315 131.203 55.19 131.203ZM73.9406 138.203C73.9406 139.43 74.5969 140.734 75.925 141.484C77.2375 140.664 77.9406 139.281 77.9406 138.203V137.438H79.1438V138.203C79.1438 139.625 80.1906 141.062 81.9719 141.672L81.3625 142.578C79.9719 142.086 78.9953 141.117 78.5188 139.953C78.0891 141.078 77.2375 142.141 75.9563 142.688C74.6047 142.172 73.7453 141.148 73.3313 139.984C72.8391 141.109 71.8781 142.078 70.55 142.578L69.925 141.672C71.675 141.016 72.7375 139.531 72.7531 138.203V137.438H73.9406V138.203ZM80.7063 128.891V136.828H79.4875V128.891H80.7063ZM73.2063 129.703C75.3156 129.703 76.8469 131.016 76.8469 132.953C76.8469 134.859 75.3156 136.172 73.2063 136.172C71.0969 136.172 69.5656 134.859 69.5656 132.953C69.5656 131.016 71.0969 129.703 73.2063 129.703ZM73.2063 130.75C71.7844 130.734 70.7531 131.656 70.7688 132.953C70.7531 134.234 71.7844 135.141 73.2063 135.156C74.6125 135.141 75.6438 134.234 75.6438 132.953C75.6438 131.656 74.6125 130.734 73.2063 130.75ZM93.98 133.094V134.078H84.4644V129.391H85.6831V133.094H93.98ZM95.4488 135.969V136.969H82.73V135.969H95.4488ZM94.0581 141.406V142.422H84.3863V138.391H85.605V141.406H94.0581ZM111.449 128.875V142.766H110.231V135.484H106.918V134.469H110.231V128.875H111.449ZM106.949 130.391C106.949 134.328 105.278 137.828 100.637 140.125L99.965 139.141C103.731 137.32 105.473 134.648 105.715 131.391H100.574V130.391H106.949ZM127.903 128.875V134.531H130.153V135.562H127.903V142.766H126.684V128.875H127.903ZM124.309 130.375C124.309 134.312 122.466 137.891 117.934 140.125L117.247 139.156C120.841 137.367 122.794 134.695 123.075 131.406H117.888V130.375H124.309ZM142.177 128.875V142.766H140.943V136.781H138.099V135.75H140.943V133.828H138.099V132.797H140.943V128.875H142.177ZM135.474 133C135.474 135.172 137.13 137.797 139.114 138.797L138.38 139.734C136.864 138.945 135.528 137.227 134.896 135.312C134.271 137.414 132.911 139.227 131.38 140.078L130.568 139.141C132.552 138.156 134.224 135.484 134.239 133V131.328H131.068V130.312H138.646V131.328H135.474V133ZM154.919 128.875V134.531H157.169V135.562H154.919V142.766H153.701V128.875H154.919ZM151.326 130.375C151.326 134.312 149.482 137.891 144.951 140.125L144.263 139.156C147.857 137.367 149.81 134.695 150.091 131.406H144.904V130.375H151.326ZM161.802 132.828C161.802 135.031 162.881 137.422 164.724 138.516L164.021 139.469C162.685 138.656 161.724 137.172 161.24 135.484C160.724 137.328 159.693 138.914 158.302 139.766L157.521 138.844C159.443 137.719 160.615 135.25 160.615 132.875V130.188H161.802V132.828ZM169.584 128.875V142.766H168.396V128.875H169.584ZM166.709 129.172V142.062H165.552V134.906H163.193V133.859H165.552V129.172H166.709ZM183.904 139.953V140.984H171.186V139.953H174.342V136.203C173.154 135.586 172.436 134.586 172.436 133.328C172.436 131.172 174.545 129.766 177.514 129.75C180.483 129.766 182.592 131.172 182.592 133.328C182.592 134.562 181.897 135.555 180.748 136.172V139.953H183.904ZM177.514 130.766C175.233 130.75 173.623 131.781 173.623 133.328C173.623 134.875 175.233 135.922 177.514 135.922C179.779 135.922 181.404 134.875 181.404 133.328C181.404 131.781 179.779 130.75 177.514 130.766ZM175.545 139.953H179.514V136.641C178.912 136.805 178.24 136.891 177.514 136.891C176.803 136.891 176.139 136.812 175.545 136.656V139.953ZM186.944 130.188L186.834 138.312H185.522L185.413 130.188H186.944ZM186.178 141.594C185.631 141.594 185.163 141.141 185.178 140.578C185.163 140.031 185.631 139.578 186.178 139.578C186.725 139.578 187.178 140.031 187.178 140.578C187.178 141.141 186.725 141.594 186.178 141.594Z" fill="white"/>
<path d="M49.5 174.5H189C199.77 174.5 208.5 183.23 208.5 194V212.5H49.5C39.0066 212.5 30.5 203.993 30.5 193.5C30.5 183.007 39.0066 174.5 49.5 174.5Z" stroke="#BDBDBD"/>
<path d="M63.9984 187.953C66.0453 187.969 67.4984 189.844 67.5141 192.797C67.4984 195.75 66.0453 197.625 63.9984 197.625C61.9359 197.625 60.4984 195.75 60.4984 192.797C60.4984 189.844 61.9359 187.969 63.9984 187.953ZM63.9984 189.047C62.6234 189.062 61.6547 190.531 61.6547 192.797C61.6547 195.062 62.6234 196.531 63.9984 196.531C65.3891 196.531 66.3266 195.062 66.3266 192.797C66.3266 190.531 65.3891 189.062 63.9984 189.047ZM71.0297 186.875V192.422H73.3578V193.484H71.0297V200.766H69.8109V186.875H71.0297ZM84.9128 186.875V192.312H86.8034V193.359H84.9128V200.766H83.6941V186.875H84.9128ZM75.1316 188.172V191.766H76.8816V188.172H77.9284V197.406H74.0691V188.172H75.1316ZM75.1316 196.375H76.8816V192.75H75.1316V196.375ZM79.7253 188.172V191.766H81.4284V188.172H82.4753V197.406H78.6784V188.172H79.7253ZM79.7253 196.375H81.4284V192.75H79.7253V196.375ZM101.851 186.891V190.297H103.945V191.297H101.851V194.766H100.632V186.891H101.851ZM102.226 195.5V196.5H100.273V199.547H102.398V200.547H92.8197V199.547H94.9134V196.5H92.9447V195.5H102.226ZM94.8978 187.688C97.0072 187.688 98.5384 189.016 98.5541 190.953C98.5384 192.875 97.0072 194.188 94.8978 194.188C92.7884 194.188 91.2416 192.875 91.2572 190.953C91.2416 189.016 92.7884 187.688 94.8978 187.688ZM94.8978 188.719C93.4916 188.719 92.4447 189.625 92.4603 190.953C92.4447 192.25 93.4916 193.156 94.8978 193.172C96.3197 193.156 97.3509 192.25 97.3509 190.953C97.3509 189.625 96.3197 188.719 94.8978 188.719ZM96.1009 199.547H99.0853V196.5H96.1009V199.547ZM116.406 186.875V200.766H115.218V186.875H116.406ZM113.609 187.172V200.062H112.437V193.312H110.656C110.523 196.016 109.375 197.703 107.656 197.703C105.843 197.703 104.672 195.828 104.672 192.875C104.672 189.922 105.843 188.047 107.656 188.047C109.343 188.047 110.484 189.68 110.64 192.297H112.437V187.172H113.609ZM107.656 189.203C106.531 189.203 105.812 190.609 105.828 192.875C105.812 195.125 106.531 196.547 107.656 196.531C108.781 196.547 109.5 195.125 109.5 192.875C109.5 190.609 108.781 189.203 107.656 189.203ZM132.922 193.391V194.391H128.625V197.984H134.422V199.016H121.703V197.984H127.422V194.391H123.328V188.016H132.782V189.016H124.563V193.391H132.922ZM139.946 189.906C139.946 191.625 141.352 193.219 143.399 193.828L142.805 194.797C141.212 194.297 139.969 193.227 139.368 191.859C138.758 193.367 137.477 194.516 135.852 195.062L135.227 194.094C137.305 193.453 138.743 191.781 138.743 189.906V189.594H135.602V188.609H138.743V186.828H139.977V188.609H143.087V189.594H139.946V189.906ZM146.071 186.875V190.594H148.165V191.641H146.071V195.359H144.852V186.875H146.071ZM146.071 196.078V200.797H144.852V197.094H136.977V196.078H146.071ZM160.517 186.891V195.5H159.345V191.734H157.532V195.281H156.36V187.109H157.532V190.719H159.345V186.891H160.517ZM155.767 188.469V189.484H148.642V188.469H151.61V186.938H152.829V188.469H155.767ZM152.22 190.188C153.985 190.188 155.188 191.109 155.204 192.562C155.188 193.984 153.985 194.938 152.22 194.938C150.47 194.938 149.235 193.984 149.251 192.562C149.235 191.109 150.47 190.188 152.22 190.188ZM152.22 191.109C151.11 191.109 150.345 191.672 150.345 192.562C150.345 193.438 151.11 194.016 152.22 194.016C153.329 194.016 154.095 193.438 154.095 192.562C154.095 191.672 153.329 191.109 152.22 191.109ZM153.642 196.391C153.626 197.578 154.274 198.812 155.595 199.516C156.907 198.75 157.579 197.406 157.595 196.391V195.891H158.798V196.391C158.782 197.75 159.845 199.125 161.626 199.672L161.048 200.609C159.649 200.125 158.665 199.18 158.188 198.047C157.759 199.148 156.915 200.203 155.61 200.719C154.267 200.219 153.423 199.234 153.017 198.109C152.501 199.188 151.532 200.125 150.204 200.609L149.61 199.672C151.345 199.078 152.438 197.656 152.438 196.391V195.891H153.642V196.391ZM165.962 187.953C167.853 187.969 169.212 189.586 169.415 192.188H172.525V186.875H173.743V200.797H172.525V193.203H169.431C169.283 195.922 167.9 197.625 165.962 197.625C163.915 197.625 162.478 195.75 162.478 192.797C162.478 189.844 163.915 187.969 165.962 187.953ZM165.962 189.047C164.587 189.062 163.65 190.531 163.65 192.797C163.65 195.062 164.587 196.531 165.962 196.531C167.322 196.531 168.275 195.062 168.275 192.797C168.275 190.531 167.322 189.062 165.962 189.047ZM177.986 188.188L177.877 196.312H176.564L176.455 188.188H177.986ZM177.22 199.594C176.673 199.594 176.205 199.141 176.22 198.578C176.205 198.031 176.673 197.578 177.22 197.578C177.767 197.578 178.22 198.031 178.22 198.578C178.22 199.141 177.767 199.594 177.22 199.594Z" fill="#222222"/>
</svg>
